<svg width="180" height="180" viewBox="0 0 180 180" fill="none" xmlns="http://www.w3.org/2000/svg">
  <style>
    @media (prefers-color-scheme: light) {
      .bg { fill: #1a1625; }
      .fg { fill: #e9e0f5; }
    }
    @media (prefers-color-scheme: dark) {
      .bg { fill: #1a1625; }
      .fg { fill: #e9e0f5; }
    }
  </style>
  <rect class="bg" width="180" height="180" rx="36" />
  <g class="fg">
    <!-- C (Circe) -->
    <path d="M72 50c-24 0-44 20-44 44s20 44 44 44c14 0 26-6 35-16l-11-10c-7 8-17 12-24 12-17 0-30-13-30-30s13-30 30-30c7 0 17 4 24 12l11-10c-9-10-21-16-35-16z" />
    <!-- V (Venus) -->
    <path d="M108 54l22 40h-12l-10-20-10 20H84l22-40h2z" />
  </g>
</svg>
